<?xml version="1.0" standalone="no"?>
<!DOCTYPE svg PUBLIC "-//W3C//DTD SVG 20010904//EN"
 "http://www.w3.org/TR/2001/REC-SVG-20010904/DTD/svg10.dtd">
<svg version="1.0" xmlns="http://www.w3.org/2000/svg"
 width="288.000000pt" height="272.000000pt" viewBox="0 0 288.000000 272.000000"
 preserveAspectRatio="xMidYMid meet">

<g transform="translate(0.000000,272.000000) scale(0.100000,-0.100000)"
fill="#000000" stroke="none">
<path d="M1078 2529 c-142 -15 -271 -63 -373 -139 -192 -144 -351 -481 -384
-817 l-7 -73 111 0 111 0 30 31 c47 50 118 79 197 79 37 0 82 -6 100 -14 39
-16 118 -81 110 -90 -4 -3 29 -6 72 -6 43 0 75 3 72 6 -9 9 59 63 108 85 73
34 194 20 247 -28 16 -14 18 -14 27 11 9 23 16 26 60 26 54 0 61 -8 61 -66 0
-33 1 -34 43 -34 36 0 45 5 62 30 11 17 44 42 72 56 45 22 63 26 122 22 76 -4
126 -30 156 -80 12 -21 24 -28 46 -28 16 0 29 5 29 11 0 5 -3 8 -7 6 -5 -3 -9
5 -10 16 -1 12 -4 31 -5 42 -3 18 4 20 54 23 l57 3 22 -51 21 -50 83 0 82 0
21 50 21 50 56 0 57 0 -4 -42 c-1 -24 -7 -46 -13 -50 -5 -4 26 -7 70 -7 44 0
74 3 67 6 -6 2 -10 9 -7 13 3 5 -6 35 -20 67 -80 179 -257 381 -480 546 -303
225 -601 350 -940 396 -87 12 -85 12 -197 0z"/>
<path d="M2750 1193 c-21 -77 -96 -222 -160 -308 -261 -350 -729 -639 -1176
-726 -92 -18 -132 -21 -259 -16 -132 4 -160 8 -236 34 -226 77 -412 284 -514
570 -13 37 -24 61 -25 53 0 -25 38 -128 86 -229 85 -180 212 -319 357 -389
138 -67 188 -77 382 -76 158 0 179 3 292 32 68 17 167 48 220 68 425 159 841
508 989 829 34 74 70 192 62 201 -3 2 -11 -17 -18 -43z"/>
<path d="M352 900 c0 -14 2 -19 5 -12 2 6 2 18 0 25 -3 6 -5 1 -5 -13z"/>
</g>
</svg>
